<?xml version="1.0" encoding="utf-8"?>
<!-- Generator: Adobe Illustrator 22.0.1, SVG Export Plug-In . SVG Version: 6.00 Build 0)  -->
<svg version="1.1" id="Ebene_1" xmlns="http://www.w3.org/2000/svg" xmlns:xlink="http://www.w3.org/1999/xlink" x="0px" y="0px"
	 viewBox="0 0 44.9 35.9" style="enable-background:new 0 0 44.9 35.9;" xml:space="preserve">
<style type="text/css">
	.st0{opacity:0.8;fill:#B5E10A;}
	.st1{fill:#B5E10A;}
</style>
<g>
	<g>
		<path class="st0" d="M41.5,12.5c0,0,3.5,9.3,3.5,15.1c0,5.3-2.8,6.4-4.6,6.4s-3.1-0.2-4.6-0.2c-1.6,0-8.1,0.9-11.2,1.8
			c-2.9,0.9-4.5,0.2-4.5-1.8c0-1.7,1.1-3.2,1.1-3.2s1.3,1,3.5,1c2.8,0,4.6-2.1,4.6-2.1s1.9,2.8,5.4,2.8s6.8-2.9,6.8-6.3
			S41.5,12.5,41.5,12.5z"/>
		<path class="st1" d="M28.8,12c0,1.2,0,13.5,0,14.7s-1.1,3.5-4.2,3.5s-5-2.1-5-3.4s0-12.7,0-13.3c0-0.6-0.2-0.8-0.6-0.8
			s-0.7,0.2-0.7,0.9s0,11.5,0,12.9c0,1.7-1.7,3-3.9,3s-4.6-1-4.6-3.3c0-1.4,0-10.4,0-11.2c0-0.8-0.2-1-0.7-1c-0.5,0-0.7,0.5-0.7,1
			c0,0.6,0,9.1,0,10.7c0,2.1-1.9,3.1-3.9,3.1S0,27,0,24.2s0-11.7,0-14.1c0-3.7,2.6-6.3,5.5-6.3c2.5,0,3.6,0.4,3.6,0.4s2-3.4,5.3-3.4
			s4.5,1.3,4.5,1.3S20.7,0,24.1,0s5.4,2.1,5.4,2.1S30,2,32.4,2C35.6,2,40,3.7,40,8.7c0,6.9,0,13.9,0,16.7c0,3.4-2.4,5.5-5.1,5.5
			s-4.8-1.5-4.8-3.7s0.1-14.2,0.1-15.1c0-0.9-0.1-0.9-0.7-0.9S28.8,12,28.8,12z"/>
	</g>
</g>
</svg>
