<?xml version="1.0" encoding="utf-8"?>
<!-- Generator: Adobe Illustrator 22.0.1, SVG Export Plug-In . SVG Version: 6.00 Build 0)  -->
<svg version="1.1" id="Ebene_1" xmlns="http://www.w3.org/2000/svg" xmlns:xlink="http://www.w3.org/1999/xlink" x="0px" y="0px"
	 viewBox="0 0 223.5 35.9" style="enable-background:new 0 0 223.5 35.9;" xml:space="preserve">
<style type="text/css">
	.st0{fill:#36302F;}
	.st1{fill:#B5E10A;}
	.st2{opacity:0.8;fill:#B5E10A;}
</style>
<g>
	<g>
		<g>
			<path class="st0" d="M55.4,2.4h4.9v7.2l6.1-7.2h5.8L65.5,10l6.9,10.1h-5.9l-4.5-6.6l-1.8,2v4.6h-4.9V2.4z"/>
			<path class="st0" d="M76.4,2.4H81l7.3,9.4V2.4h4.8v17.7h-4.3l-7.6-9.7v9.7h-4.8V2.4z"/>
			<path class="st0" d="M107.7,20.5c-1.4,0-2.6-0.2-3.8-0.7c-1.2-0.5-2.2-1.1-3-2c-0.8-0.8-1.5-1.8-2-2.9c-0.5-1.1-0.7-2.3-0.7-3.6
				v-0.1c0-1.3,0.2-2.5,0.7-3.6c0.5-1.1,1.2-2.1,2-2.9c0.9-0.8,1.9-1.5,3-2c1.2-0.5,2.4-0.7,3.8-0.7c1.4,0,2.6,0.2,3.8,0.7
				c1.2,0.5,2.2,1.1,3,2c0.8,0.8,1.5,1.8,2,2.9s0.7,2.3,0.7,3.6v0.1c0,1.3-0.2,2.5-0.7,3.6s-1.2,2.1-2,2.9c-0.9,0.8-1.9,1.5-3,2
				C110.4,20.2,109.1,20.5,107.7,20.5z M107.8,16c0.7,0,1.3-0.1,1.9-0.4s1-0.6,1.4-1c0.4-0.4,0.7-0.9,0.9-1.5
				c0.2-0.6,0.3-1.2,0.3-1.8v-0.1c0-0.6-0.1-1.3-0.3-1.8c-0.2-0.6-0.5-1.1-0.9-1.5c-0.4-0.4-0.9-0.8-1.4-1.1
				c-0.6-0.3-1.2-0.4-1.9-0.4s-1.3,0.1-1.8,0.4c-0.6,0.3-1,0.6-1.4,1s-0.7,0.9-0.9,1.5c-0.2,0.6-0.3,1.2-0.3,1.8v0.1
				c0,0.6,0.1,1.3,0.3,1.8s0.5,1.1,0.9,1.5c0.4,0.4,0.9,0.8,1.4,1.1C106.5,15.9,107.1,16,107.8,16z"/>
			<path class="st0" d="M131,20.5c-1.3,0-2.5-0.2-3.6-0.7c-1.1-0.5-2.1-1.1-2.9-1.9c-0.8-0.8-1.5-1.8-2-2.9
				c-0.5-1.1-0.7-2.3-0.7-3.7v-0.1c0-1.3,0.2-2.5,0.7-3.6c0.5-1.1,1.1-2.1,2-2.9c0.8-0.8,1.8-1.5,3-2c1.1-0.5,2.4-0.7,3.7-0.7
				c0.9,0,1.7,0.1,2.5,0.3c0.7,0.2,1.4,0.4,2,0.8c0.6,0.3,1.2,0.7,1.7,1.2c0.5,0.5,0.9,1,1.3,1.5L135,8.6c-0.5-0.6-1.1-1.1-1.7-1.5
				c-0.6-0.4-1.3-0.6-2.2-0.6c-0.6,0-1.2,0.1-1.7,0.4c-0.5,0.2-1,0.6-1.3,1c-0.4,0.4-0.7,0.9-0.9,1.5c-0.2,0.6-0.3,1.2-0.3,1.8v0.1
				c0,0.7,0.1,1.3,0.3,1.9c0.2,0.6,0.5,1.1,0.9,1.5c0.4,0.4,0.8,0.8,1.3,1s1.1,0.4,1.7,0.4c0.5,0,0.9-0.1,1.3-0.2
				c0.4-0.1,0.7-0.2,1-0.4c0.3-0.2,0.6-0.4,0.9-0.7c0.3-0.3,0.6-0.6,0.8-0.9l3.7,2.6c-0.4,0.6-0.9,1.1-1.4,1.6
				c-0.5,0.5-1.1,0.9-1.7,1.3c-0.6,0.4-1.3,0.6-2.1,0.8C132.8,20.4,131.9,20.5,131,20.5z"/>
			<path class="st0" d="M143.5,2.4h4.9v7.2l6.1-7.2h5.8l-6.7,7.6l6.9,10.1h-5.9l-4.5-6.6l-1.8,2v4.6h-4.9V2.4z"/>
			<path class="st1" d="M170.6,2.2h4.7l7.6,17.9h-5.3l-1.3-3.2h-6.8l-1.3,3.2h-5.2L170.6,2.2z M174.9,13.1l-2-5l-2,5H174.9z"/>
			<path class="st1" d="M195.2,20.4c-1.3,0-2.4-0.2-3.4-0.5c-1-0.3-1.9-0.8-2.6-1.5c-0.7-0.7-1.3-1.5-1.6-2.5
				c-0.4-1-0.6-2.2-0.6-3.6v-10h5v9.9c0,1.3,0.3,2.2,0.9,2.9c0.6,0.6,1.4,0.9,2.4,0.9s1.8-0.3,2.4-0.9c0.6-0.6,0.9-1.5,0.9-2.8v-10
				h5v9.8c0,1.4-0.2,2.7-0.6,3.7s-1,1.9-1.7,2.6c-0.7,0.7-1.6,1.2-2.6,1.5C197.6,20.3,196.4,20.4,195.2,20.4z"/>
			<path class="st1" d="M213.2,6.7h-5.3V2.4h15.6v4.3h-5.3v13.4h-4.9V6.7z"/>
		</g>
	</g>
	<g>
		<g>
			<path class="st2" d="M41.5,12.5c0,0,3.5,9.3,3.5,15.1c0,5.3-2.8,6.4-4.6,6.4s-3.1-0.2-4.6-0.2c-1.6,0-8.1,0.9-11.2,1.8
				c-2.9,0.9-4.5,0.2-4.5-1.8c0-1.7,1.1-3.2,1.1-3.2s1.3,1,3.5,1c2.8,0,4.6-2.1,4.6-2.1s1.9,2.8,5.4,2.8s6.8-2.9,6.8-6.3
				S41.5,12.5,41.5,12.5z"/>
			<path class="st1" d="M28.8,12c0,1.2,0,13.5,0,14.7s-1.1,3.5-4.2,3.5s-5-2.1-5-3.4s0-12.7,0-13.3c0-0.6-0.2-0.8-0.6-0.8
				s-0.7,0.2-0.7,0.9s0,11.5,0,12.9c0,1.7-1.7,3-3.9,3s-4.6-1-4.6-3.3c0-1.4,0-10.4,0-11.2c0-0.8-0.2-1-0.7-1c-0.5,0-0.7,0.5-0.7,1
				c0,0.6,0,9.1,0,10.7c0,2.1-1.9,3.1-3.9,3.1S0,27,0,24.2s0-11.7,0-14.1c0-3.7,2.6-6.3,5.5-6.3c2.5,0,3.6,0.4,3.6,0.4
				s2-3.4,5.3-3.4s4.5,1.3,4.5,1.3S20.7,0,24.1,0s5.4,2.1,5.4,2.1S30,2,32.4,2C35.6,2,40,3.7,40,8.7c0,6.9,0,13.9,0,16.7
				c0,3.4-2.4,5.5-5.1,5.5s-4.8-1.5-4.8-3.7s0.1-14.2,0.1-15.1c0-0.9-0.1-0.9-0.7-0.9S28.8,12,28.8,12z"/>
		</g>
	</g>
	<g>
		<path class="st0" d="M56.4,35.3v-8.4h0.8v8.4H56.4z"/>
		<path class="st0" d="M63.9,28L63.9,28l0,7.3h-0.8v-8.4H64l4.9,7.3h0v-7.3h0.8v8.4h-0.9L63.9,28z"/>
		<path class="st0" d="M74.6,26.9h6.1v0.7H78v7.7h-0.8v-7.7h-2.7V26.9z"/>
		<path class="st0" d="M85.6,35.3v-8.4h5.6v0.7h-4.8v3h4.3v0.7h-4.3v3.3h4.9v0.7H85.6z"/>
		<path class="st0" d="M96.6,35.3v-8.4h0.8v7.7h4.5v0.7H96.6z"/>
		<path class="st0" d="M106.9,35.3v-8.4h0.8v7.7h4.5v0.7H106.9z"/>
		<path class="st0" d="M117.4,35.3v-8.4h0.8v8.4H117.4z"/>
		<path class="st0" d="M127.8,31.6v-0.7h3.6v4.3h-0.7v-1.4c-0.1,0.2-0.3,0.5-0.5,0.7c-0.2,0.2-0.4,0.4-0.7,0.5
			c-0.2,0.1-0.5,0.3-0.9,0.3c-0.3,0.1-0.7,0.1-1.1,0.1c-0.5,0-1-0.1-1.5-0.3c-0.5-0.2-0.8-0.5-1.2-0.8c-0.3-0.4-0.6-0.8-0.8-1.4
			c-0.2-0.6-0.3-1.2-0.3-2c0-0.6,0.1-1.2,0.2-1.7c0.2-0.5,0.4-1,0.7-1.4c0.3-0.4,0.7-0.7,1.2-0.9c0.5-0.2,1.1-0.3,1.7-0.3
			c0.4,0,0.9,0.1,1.2,0.2c0.4,0.1,0.7,0.3,1,0.5c0.3,0.2,0.6,0.5,0.8,0.8c0.2,0.3,0.4,0.7,0.5,1.2h-0.8c-0.1-0.3-0.2-0.6-0.4-0.8
			c-0.2-0.3-0.4-0.5-0.6-0.6c-0.2-0.2-0.5-0.3-0.8-0.4s-0.6-0.1-0.9-0.1c-0.6,0-1,0.1-1.4,0.3c-0.4,0.2-0.7,0.5-1,0.8
			s-0.4,0.8-0.6,1.3c-0.1,0.5-0.2,1-0.2,1.6c0,0.5,0.1,0.9,0.2,1.3c0.1,0.4,0.3,0.8,0.6,1.1c0.3,0.3,0.6,0.6,1,0.8
			c0.4,0.2,0.8,0.3,1.3,0.3c0.2,0,0.5,0,0.7-0.1s0.5-0.1,0.7-0.3c0.2-0.1,0.4-0.3,0.6-0.5s0.4-0.4,0.5-0.7c0.1-0.3,0.2-0.5,0.3-0.8
			c0-0.3,0.1-0.6,0.1-0.9H127.8z"/>
		<path class="st0" d="M137.1,35.3v-8.4h5.6v0.7h-4.8v3h4.3v0.7h-4.3v3.3h4.9v0.7H137.1z"/>
		<path class="st0" d="M148.8,28L148.8,28l0,7.3H148v-8.4h0.9l4.9,7.3h0v-7.3h0.8v8.4h-0.9L148.8,28z"/>
		<path class="st0" d="M159.5,26.9h6.1v0.7H163v7.7h-0.8v-7.7h-2.7V26.9z"/>
		<path class="st0" d="M173.8,35.3v-8.4h0.8v3.6h5v-3.6h0.8v8.4h-0.8v-4.1h-5v4.1H173.8z"/>
		<path class="st0" d="M185.7,31.1c0-0.6,0.1-1.2,0.3-1.7c0.2-0.5,0.4-1,0.7-1.4c0.3-0.4,0.7-0.7,1.2-1c0.5-0.2,1-0.4,1.7-0.4
			c0.7,0,1.2,0.1,1.7,0.3c0.5,0.2,0.9,0.5,1.2,0.9c0.3,0.4,0.6,0.9,0.7,1.4c0.2,0.5,0.3,1.1,0.3,1.7c0,0.6-0.1,1.2-0.3,1.7
			c-0.2,0.5-0.4,1-0.7,1.4c-0.3,0.4-0.7,0.7-1.2,1c-0.5,0.2-1.1,0.4-1.7,0.4c-0.6,0-1.2-0.1-1.7-0.4c-0.5-0.2-0.9-0.6-1.2-1
			c-0.3-0.4-0.6-0.9-0.7-1.4C185.8,32.3,185.7,31.7,185.7,31.1z M189.7,34.8c0.5,0,1-0.1,1.4-0.3c0.4-0.2,0.7-0.5,1-0.8
			s0.4-0.7,0.6-1.2c0.1-0.5,0.2-0.9,0.2-1.4c0-0.6-0.1-1.1-0.2-1.6c-0.1-0.5-0.4-0.9-0.6-1.2s-0.6-0.6-1-0.7
			c-0.4-0.2-0.8-0.3-1.3-0.3c-0.5,0-1,0.1-1.4,0.3c-0.4,0.2-0.7,0.5-1,0.8s-0.4,0.7-0.6,1.2c-0.1,0.5-0.2,0.9-0.2,1.4
			c0,0.5,0.1,1,0.2,1.4c0.1,0.5,0.3,0.8,0.6,1.2s0.6,0.6,1,0.8C188.6,34.7,189.1,34.8,189.7,34.8z"/>
		<path class="st0" d="M198.9,35.3v-8.4h1.2l2.8,7.4h0l2.7-7.4h1.2v8.4H206v-7.5h0l-2.8,7.5h-0.7l-2.8-7.5h0v7.5H198.9z"/>
		<path class="st0" d="M212.5,35.3v-8.4h5.6v0.7h-4.8v3h4.3v0.7h-4.3v3.3h4.9v0.7H212.5z"/>
	</g>
</g>
</svg>
